<?xml version="1.0" encoding="UTF-8" standalone="no"?>
<svg
   xmlns:dc="http://purl.org/dc/elements/1.1/"
   xmlns:cc="http://creativecommons.org/ns#"
   xmlns:rdf="http://www.w3.org/1999/02/22-rdf-syntax-ns#"
   xmlns:svg="http://www.w3.org/2000/svg"
   xmlns="http://www.w3.org/2000/svg"
   xmlns:sodipodi="http://sodipodi.sourceforge.net/DTD/sodipodi-0.dtd"
   xmlns:inkscape="http://www.inkscape.org/namespaces/inkscape"
   viewBox="0 0 24 24"
   version="1.1"
   id="svg13"
   sodipodi:docname="maps.svg"
   inkscape:version="0.92.5 (2060ec1f9f, 2020-04-08)">
  <metadata
     id="metadata19">
    <rdf:RDF>
      <cc:Work
         rdf:about="">
        <dc:format>image/svg+xml</dc:format>
        <dc:type
           rdf:resource="http://purl.org/dc/dcmitype/StillImage" />
        <dc:title />
      </cc:Work>
    </rdf:RDF>
  </metadata>
  <defs
     id="defs17" />
  <sodipodi:namedview
     pagecolor="#ffffff"
     bordercolor="#666666"
     borderopacity="1"
     objecttolerance="10"
     gridtolerance="10"
     guidetolerance="10"
     inkscape:pageopacity="0"
     inkscape:pageshadow="2"
     inkscape:window-width="1294"
     inkscape:window-height="704"
     id="namedview15"
     showgrid="false"
     inkscape:zoom="27.812867"
     inkscape:cx="12"
     inkscape:cy="12"
     inkscape:window-x="72"
     inkscape:window-y="27"
     inkscape:window-maximized="1"
     inkscape:current-layer="svg13"
     inkscape:pagecheckerboard="true" />
  <path
     inkscape:connector-curvature="0"
     id="path10"
     style="fill:#e6e6e6;fill-opacity:1;stroke-width:1.16768038"
     d="m 12.017488,0.84880956 a 7.0060825,7.0060825 0 0 0 -7.0060779,7.00608254 6.9126681,6.9126681 0 0 0 0,0.7940227 C 5.256623,11.136076 6.5877786,13.191192 8.000672,15.363078 a 20.551176,20.551176 0 0 1 3.397946,7.204589 0.58384022,0.58384022 0 0 0 1.16768,0 20.551176,20.551176 0 0 1 3.397954,-7.204589 c 1.412893,-2.171886 2.744049,-4.227002 2.989262,-6.7024864 A 7.0060825,7.0060825 0 0 0 12.017488,0.84880956 Z m 0,3.50304124 A 3.5030413,3.5030413 0 1 1 8.5144513,7.8548921 3.5030413,3.5030413 0 0 1 12.017488,4.3518508 Z" />
</svg>
